<mxfile host="app.diagrams.net" modified="2022-12-06T10:32:12.200Z" agent="5.0 (Windows NT 10.0; WOW64) AppleWebKit/537.36 (KHTML, like Gecko) Chrome/87.0.4280.66 Safari/537.36" etag="fG8rEsnd0uGIkg40-fUI" version="20.6.0" type="github">
  <diagram id="Vq-S5b-R2pcWZ0m__wl8" name="第 1 页">
    <mxGraphModel dx="888" dy="467" grid="1" gridSize="10" guides="1" tooltips="1" connect="1" arrows="1" fold="1" page="1" pageScale="1" pageWidth="827" pageHeight="1169" math="0" shadow="0">
      <root>
        <mxCell id="0" />
        <mxCell id="1" parent="0" />
      </root>
    </mxGraphModel>
  </diagram>
</mxfile>
